<svg width="92" height="88" viewBox="0 0 92 88" fill="none" xmlns="http://www.w3.org/2000/svg">
<path fill-rule="evenodd" clip-rule="evenodd" d="M31.789 13.7811L18 27.5711V43.9921V60.4131L31.789 74.2031C42.581 84.9941 46.156 87.9921 48.233 87.9921C53.924 87.9921 54 87.4031 54 43.4241C54 5.8241 53.885 3.1981 52.171 1.6471C48.292 -1.8639 46.174 -0.602904 31.789 13.7811ZM58 11.6561C58 13.2121 59.146 13.8291 63.837 14.7971C85.23 19.2161 94.89 44.1501 82 61.6781C77.853 67.3161 70.887 71.7301 63.837 73.1871C59.146 74.1551 58 74.7721 58 76.3281C58 78.0571 58.498 78.1961 62.669 77.6241C73.587 76.1271 84.041 68.3051 88.906 57.9921C91.063 53.4181 91.5 51.0611 91.5 43.9921C91.5 36.9231 91.063 34.5661 88.906 29.9921C84.041 19.6791 73.587 11.8571 62.669 10.3601C58.498 9.7881 58 9.9271 58 11.6561ZM58 23.7361C58 25.1971 58.878 25.9181 61.234 26.3891C69.083 27.9591 76 36.2041 76 43.9921C76 51.7801 69.083 60.0251 61.234 61.5951C58.878 62.0661 58 62.7871 58 64.2481C58 66.0001 58.465 66.1781 61.678 65.6571C71.558 64.0541 80 54.0711 80 43.9921C80 33.9131 71.558 23.9301 61.678 22.3271C58.465 21.8061 58 21.9841 58 23.7361ZM1.655 27.8211C0.275 29.3461 0 32.0621 0 44.1661C0 61.3541 0.325001 61.9921 9.079 61.9921H14.5V43.9921V25.9921H8.905C4.755 25.9921 2.883 26.4641 1.655 27.8211ZM58 35.8311C58 36.8431 59.113 38.1781 60.472 38.7971C65.002 40.8611 64.687 48.0051 60.001 49.4921C58.019 50.1211 57.118 53.9921 58.953 53.9921C63.143 53.9921 68 48.6231 68 43.9921C68 40.6861 65.394 36.4931 62.528 35.1871C58.934 33.5491 58 33.6821 58 35.8311Z" fill="black"/>
</svg>
